# Blender v3.2.0 OBJ File: ''
# www.blender.org
mtllib floor.mtl
o Plane
v -5.000000 -1.100000 5.000000
v 5.000000 -1.100000 5.000000
v -5.000000 -1.100000 -5.000000
v 5.000000 -1.100000 -5.000000
v -4.500000 -1.100000 5.000000
v 4.500000 -1.100000 5.000000
v 4.500000 -1.100000 -5.000000
v -4.500000 -1.100000 -5.000000
v -5.000000 -1.100000 -4.500000
v -5.000000 -1.100000 4.500000
v 5.000000 -1.100000 4.500000
v 5.000000 -1.100000 -4.500000
v -4.500000 -1.000000 4.500000
v -4.500000 -1.000000 -4.500000
v 4.500000 -1.000000 4.500000
v 4.500000 -1.000000 -4.500000
v -5.000000 -0.500000 4.500000
v -5.000000 -0.500000 5.000000
v 4.500000 -0.500000 5.000000
v 5.000000 -0.500000 5.000000
v 5.000000 -0.500000 -4.500000
v 5.000000 -0.500000 -5.000000
v -4.500000 -0.500000 -5.000000
v -5.000000 -0.500000 -5.000000
v -4.500000 -0.500000 5.000000
v 4.500000 -0.500000 -5.000000
v -4.500000 -0.500000 -4.500000
v 4.500000 -0.500000 -4.500000
v -5.000000 -0.500000 -4.500000
v 5.000000 -0.500000 4.500000
v -4.500000 -0.500000 4.500000
v 4.500000 -0.500000 4.500000
vt 0.333333 0.666667
vt 0.666667 0.666667
vt 0.666667 0.666667
vt 0.333333 0.666667
vt 0.000000 0.000000
vt 0.000000 0.000000
vt 0.000000 0.000000
vt 0.000000 0.000000
vt 0.000000 0.000000
vt 0.000000 0.000000
vt 0.000000 0.000000
vt 0.000000 0.000000
vt 0.666667 0.333333
vt 0.333333 0.333333
vt 0.333333 0.333333
vt 0.666667 0.333333
vt 0.000000 0.000000
vt 0.000000 0.000000
vt 0.000000 0.000000
vt 0.000000 0.000000
vt 0.000000 0.000000
vt 0.000000 0.000000
vt 0.000000 0.000000
vt 0.000000 0.000000
vt 1.000000 0.666667
vt 1.000000 1.000000
vt 0.666667 1.000000
vt 0.000000 0.666667
vt 0.333333 1.000000
vt 0.000000 1.000000
vt 0.333333 0.000000
vt 0.666667 0.000000
vt 0.000000 0.333333
vt 0.000000 0.000000
vt 1.000000 0.333333
vt 0.000000 0.000000
vt 0.000000 0.000000
vt 0.000000 0.000000
vt 0.000000 0.000000
vt 0.000000 0.000000
vt 0.000000 0.000000
vt 0.000000 0.000000
vn 0.0000 0.0000 1.0000
vn -1.0000 0.0000 0.0000
vn 0.0000 0.0000 -1.0000
vn 0.0000 1.0000 0.0000
vn 1.0000 0.0000 0.0000
vn 0.0000 -1.0000 0.0000
usemtl None
s off
f 14/1/1 16/2/1 28/3/1 27/4/1
f 1/5/1 5/6/1 25/7/1 18/8/1
f 9/9/2 10/10/2 17/11/2 29/12/2
f 15/13/3 13/14/3 31/15/3 32/16/3
f 13/14/4 15/13/4 16/2/4 14/1/4
f 8/17/3 3/18/3 24/19/3 23/20/3
f 3/18/2 9/9/2 29/12/2 24/19/2
f 16/2/2 15/13/2 32/16/2 28/3/2
f 12/21/5 4/22/5 22/23/5 21/24/5
f 28/3/4 21/25/4 22/26/4 26/27/4
f 29/28/4 27/4/4 23/29/4 24/30/4
f 27/4/4 28/3/4 26/27/4 23/29/4
f 25/31/4 19/32/4 32/16/4 31/15/4
f 18/8/4 25/31/4 31/15/4 17/33/4
f 17/33/4 31/15/4 27/4/4 29/28/4
f 20/34/4 30/35/4 32/16/4 19/32/4
f 32/16/4 30/35/4 21/25/4 28/3/4
f 2/36/5 11/37/5 30/38/5 20/34/5
f 5/6/1 6/39/1 19/40/1 25/7/1
f 11/37/5 12/21/5 21/24/5 30/38/5
f 4/22/3 7/41/3 26/42/3 22/23/3
f 7/41/3 8/17/3 23/20/3 26/42/3
f 10/10/2 1/5/2 18/8/2 17/11/2
f 13/14/5 14/1/5 27/4/5 31/15/5
f 6/39/1 2/36/1 20/34/1 19/40/1
f 12/21/6 9/9/6 3/18/6 4/22/6
f 10/10/6 11/37/6 2/36/6 1/5/6
f 9/9/6 12/21/6 11/37/6 10/10/6
