# Blender v3.2.0 OBJ File: ''
# www.blender.org
mtllib floor_double.mtl
o Plane
v -4.500000 -0.999999 -9.500000
v 4.500000 -0.999999 -9.500000
v 4.500000 -0.499999 -9.500000
v -4.500000 -0.499999 -9.500000
v -5.000000 -1.100001 10.000000
v -4.500000 -1.100001 10.000000
v -4.500000 -0.500001 10.000000
v -5.000000 -0.500001 10.000000
v -5.000000 -1.099999 -9.500000
v -5.000000 -1.100001 9.500000
v -5.000000 -0.500001 9.500000
v -5.000000 -0.499999 -9.500000
v 4.500000 -1.000001 9.500000
v -4.500000 -1.000001 9.500000
v -4.500000 -0.500001 9.500000
v 4.500000 -0.500001 9.500000
v -4.500000 -1.099999 -10.000000
v -5.000000 -1.099999 -10.000000
v -5.000000 -0.499999 -10.000000
v -4.500000 -0.499999 -10.000000
v 5.000000 -1.099999 -9.500000
v 5.000000 -1.099999 -10.000000
v 5.000000 -0.499999 -10.000000
v 5.000000 -0.499999 -9.500000
v 4.500000 -0.499999 -10.000000
v 4.500000 -0.500001 10.000000
v 5.000000 -0.500001 10.000000
v 5.000000 -0.500001 9.500000
v 5.000000 -1.100001 10.000000
v 5.000000 -1.100001 9.500000
v 4.500000 -1.100001 10.000000
v 4.500000 -1.099999 -10.000000
v -5.000000 -1.100000 -0.316667
v -5.000000 -1.100000 0.316666
v 4.500000 -1.000000 -0.316667
v 4.500000 -1.000000 0.316666
v 5.000000 -1.100000 -0.316667
v 5.000000 -1.100000 0.316666
v 5.000000 -0.500000 0.316667
v -4.500000 -1.000000 -0.316667
v -4.500000 -1.000000 0.316666
v 4.500000 -0.500000 -0.316667
v 4.500000 -0.500000 0.316667
v -4.500000 -0.500000 -0.316667
v -5.000000 -0.500000 0.316667
v -5.000000 -0.500000 -0.316667
v 5.000000 -0.500000 -0.316667
v -4.500000 -0.500000 0.316667
v -5.000000 5.500000 0.316671
v -5.000000 5.500000 -0.316662
v 5.000000 5.500000 -0.316662
v 5.000000 5.500000 0.316671
v 4.500000 5.500000 -0.316662
v 4.500000 5.500000 0.316671
v -4.500000 5.500000 -0.316662
v -4.500000 5.500000 0.316671
v -5.000000 4.600000 -0.316662
v -4.500000 4.600000 -0.316662
v -4.500000 4.600000 0.316671
v -5.000000 4.600000 0.316671
v 4.500000 4.600000 -0.316662
v 5.000000 4.600000 -0.316662
v 5.000000 4.600000 0.316671
v 4.500000 4.600000 0.316671
vt 0.333333 0.666667
vt 0.666667 0.666667
vt 0.666667 0.666667
vt 0.333333 0.666667
vt 0.000000 0.000000
vt 0.000000 0.000000
vt 0.000000 0.000000
vt 0.000000 0.000000
vt 0.000000 0.000000
vt 0.000000 0.000000
vt 0.000000 0.000000
vt 0.000000 0.000000
vt 0.666667 0.333333
vt 0.333333 0.333333
vt 0.333333 0.333333
vt 0.666667 0.333333
vt 0.333333 0.555556
vt 0.666667 0.555556
vt 0.000000 0.000000
vt 0.000000 0.000000
vt 0.000000 0.000000
vt 0.000000 0.000000
vt 0.000000 0.000000
vt 0.000000 0.000000
vt 0.666667 0.444444
vt 0.666667 0.444444
vt 0.000000 0.000000
vt 0.000000 0.000000
vt 0.000000 0.000000
vt 0.000000 0.000000
vt 1.000000 0.666667
vt 1.000000 1.000000
vt 0.666667 1.000000
vt 0.000000 0.666667
vt 0.333333 1.000000
vt 0.000000 1.000000
vt 0.333333 0.000000
vt 0.666667 0.000000
vt 0.000000 0.333333
vt 0.000000 0.555556
vt 0.333333 0.555556
vt 0.000000 0.000000
vt 1.000000 0.333333
vt 0.666667 0.555556
vt 1.000000 0.555556
vt 0.000000 0.000000
vt 0.000000 0.000000
vt 0.000000 0.000000
vt 0.000000 0.000000
vt 0.000000 0.000000
vt 0.000000 0.000000
vt 0.000000 0.000000
vt 0.000000 0.000000
vt 0.000000 0.000000
vt 0.000000 0.000000
vt 0.000000 0.000000
vt 0.333333 0.444444
vt 0.333333 0.444444
vt 0.000000 0.000000
vt 1.000000 0.444444
vt 0.000000 0.444444
vt 0.000000 0.000000
vt 1.000000 0.555556
vt 0.666667 0.555556
vt 0.666667 0.555556
vt 1.000000 0.555556
vt 0.333333 0.555556
vt 0.000000 0.555556
vt 0.000000 0.555556
vt 0.333333 0.555556
vt 0.666667 0.444444
vt 1.000000 0.444444
vt 0.000000 0.444444
vt 0.333333 0.444444
vt 0.000000 0.000000
vt 0.000000 0.000000
vt 0.000000 0.000000
vt 0.000000 0.000000
vt 0.000000 0.000000
vt 0.000000 0.000000
vt 0.000000 0.000000
vt 0.000000 0.000000
vt 0.000000 0.444444
vt 0.333333 0.444444
vt 0.666667 0.444444
vt 1.000000 0.444444
vt 0.000000 0.000000
vt 0.000000 0.000000
vt 0.000000 0.000000
vt 0.000000 0.000000
vt 0.000000 0.000000
vt 0.000000 0.000000
vt 0.000000 0.000000
vt 0.000000 0.000000
vn 0.0000 0.0000 1.0000
vn -1.0000 0.0000 0.0000
vn 0.0000 0.0000 -1.0000
vn 0.0000 1.0000 0.0000
vn 1.0000 0.0000 0.0000
vn 0.0000 -1.0000 -0.0000
vn 0.1244 0.0904 -0.9881
vn 0.0876 0.2113 -0.9735
vn -0.1538 0.0000 -0.9881
vn 0.2113 -0.0875 -0.9735
vn 0.0875 0.9735 0.2113
vn -0.2113 0.9735 0.0876
vn 0.2113 0.9735 -0.0875
vn -0.0875 0.9735 -0.2113
vn 0.0000 0.1538 0.9881
vn -0.0875 0.2113 0.9735
vn -0.2113 -0.0875 0.9735
vn -0.1463 -0.0475 0.9881
vn 0.0475 -0.1463 0.9881
vn 0.1538 -0.0000 0.9881
vn -0.1244 -0.9881 0.0904
vn -0.1538 -0.9881 -0.0000
vn -0.0475 -0.9881 0.1463
vn 0.1538 -0.9881 -0.0000
vn 0.1463 0.0475 0.9881
vn 0.9881 0.0000 0.1538
vn 0.9881 0.1463 0.0475
vn 0.0000 -0.1538 -0.9881
vn -0.9881 0.0000 -0.1538
vn -0.9881 -0.0904 0.1244
vn 0.0000 -0.1538 0.9881
vn 0.0904 -0.1244 -0.9881
vn -0.0876 0.9735 -0.2113
vn -0.2113 0.9735 0.0875
vn 0.2113 -0.0876 -0.9735
vn -0.0904 0.1244 -0.9881
vn 0.0000 0.1538 -0.9881
vn 0.0875 0.2113 -0.9735
usemtl None
s off
f 1/1/1 2/2/1 3/3/1 4/4/1
f 5/5/1 6/6/1 7/7/1 8/8/1
f 34/9/2 10/10/2 11/11/2 45/12/2
f 13/13/3 14/14/3 15/15/3 16/16/3
f 40/17/4 35/18/4 2/2/4 1/1/4
f 17/19/3 18/20/3 19/21/3 20/22/3
f 18/20/2 9/23/2 12/24/2 19/21/2
f 36/25/2 13/13/2 16/16/2 43/26/2
f 21/27/5 22/28/5 23/29/5 24/30/5
f 3/3/4 24/31/4 23/32/4 25/33/4
f 12/34/4 4/4/4 20/35/4 19/36/4
f 4/4/4 3/3/4 25/33/4 20/35/4
f 7/37/4 26/38/4 16/16/4 15/15/4
f 8/8/4 7/37/4 15/15/4 11/39/4
f 46/40/4 44/41/4 4/4/4 12/34/4
f 27/42/4 28/43/4 16/16/4 26/38/4
f 42/44/4 47/45/4 24/31/4 3/3/4
f 29/46/5 30/47/5 28/48/5 27/42/5
f 6/6/1 31/49/1 26/50/1 7/7/1
f 37/51/5 21/27/5 24/30/5 47/52/5
f 22/28/3 32/53/3 25/54/3 23/29/3
f 32/53/3 17/19/3 20/22/3 25/54/3
f 10/10/2 5/5/2 8/8/2 11/11/2
f 40/17/5 1/1/5 4/4/5 44/41/5
f 31/49/1 29/46/1 27/42/1 26/50/1
f 21/27/6 9/23/6 18/20/6 22/28/6
f 10/10/6 30/47/6 29/46/6 5/5/6
f 34/9/6 38/55/6 30/47/6 10/10/6
f 9/23/6 21/27/6 37/51/6 33/56/6
f 33/56/6 37/51/6 38/55/6 34/9/6
f 14/14/5 41/57/5 48/58/5 15/15/5
f 41/57/5 40/17/5 44/41/5 48/58/5
f 30/47/5 38/55/5 39/59/5 28/48/5
f 38/55/5 37/51/5 47/52/5 39/59/5
f 16/16/4 28/43/4 39/60/4 43/26/4
f 11/39/4 15/15/4 48/58/4 45/61/4
f 2/2/2 35/18/2 42/44/2 3/3/2
f 35/18/2 36/25/2 43/26/2 42/44/2
f 14/14/4 13/13/4 36/25/4 41/57/4
f 41/57/4 36/25/4 35/18/4 40/17/4
f 9/23/2 33/56/2 46/62/2 12/24/2
f 33/56/2 34/9/2 45/12/2 46/62/2
f 62/63/3 61/64/7 53/65/8 51/66/3
f 58/67/9 57/68/3 50/69/3 55/70/10
f 54/71/11 52/72/4 51/66/4 53/65/12
f 49/73/4 56/74/13 55/70/14 50/69/4
f 64/75/15 54/76/16 56/77/17 59/78/18
f 63/79/5 62/80/5 51/81/5 52/82/5
f 60/83/1 59/84/19 56/74/16 49/73/1
f 64/85/20 63/86/1 52/72/1 54/71/17
f 61/87/21 64/75/22 59/78/23 58/88/24
f 57/89/2 60/90/2 49/91/2 50/92/2
f 46/62/2 45/12/2 60/90/2 57/89/2
f 45/61/1 48/58/1 59/84/25 60/83/1
f 48/58/5 44/41/5 58/67/26 59/84/27
f 44/41/3 46/40/3 57/68/3 58/67/28
f 42/44/2 43/26/2 64/85/29 61/64/30
f 43/26/1 39/60/1 63/86/1 64/85/31
f 39/59/5 47/52/5 62/80/5 63/79/5
f 47/45/3 42/44/3 61/64/32 62/63/3
f 54/76/13 53/93/33 55/94/34 56/77/11
f 53/93/35 61/87/36 58/88/37 55/94/38
